<?xml version="1.0" encoding="utf-8"?>
<!-- Generator: Adobe Illustrator 23.0.0, SVG Export Plug-In . SVG Version: 6.00 Build 0)  -->
<svg version="1.1" id="Camada_1" xmlns="http://www.w3.org/2000/svg" xmlns:xlink="http://www.w3.org/1999/xlink" x="0px" y="0px"
	 viewBox="0 0 1000 587.3" style="enable-background:new 0 0 1000 587.3;" xml:space="preserve">
<style type="text/css">
	.st0{fill:#FFFFFF;}
	.st1{fill-rule:evenodd;clip-rule:evenodd;fill:#3F743C;}
	.st2{fill-rule:evenodd;clip-rule:evenodd;fill:#C01B1D;}
</style>
<g>
	<path class="st0" d="M11.3,422.3L11.3,422.3l60.2-221.7c14.5-53.2,36.4-93.5,70.3-123.9c33.6-30.2,78-49.7,137.7-61.5
		c74-14.7,220.7-18.9,335.9-11.7v0c22.2,1.4,43.9,3.3,64.1,5.7c19.9,2.4,37.9,5.2,53.1,8.5c1.2,0.3,2.8,0.6,4.6,1.1
		c54.2,12.7,95,32.7,126,62.5c31.1,29.9,51.7,68.8,65.4,119.4l60.2,221.7l-0.1,0c7.5,27.4,11.6,49.7,11.3,67.3
		c-0.4,22.4-7.4,38.7-22.2,49.3c-22.1,15.9-77.3,26.6-144.7,33.7c-16,1.7-29,2.9-39.3,3.7c-12.6,1-26.3,2-41.1,2.9l-0.1,0
		c-83.2,5.3-165.7,7.9-248.5,7.9c-82.8,0.1-165.1-2.4-247.9-7.4c-74.3-4.5-145-11.8-189.8-23.1c-9.3-2.3-17.4-4.8-24.4-7.5
		c-7.9-3-14.5-6.4-19.7-10.1l0,0l-0.1-0.1C7.4,528.4,0.4,512.1,0,489.7C-0.3,472,3.7,449.7,11.3,422.3L11.3,422.3z"/>
	<path class="st1" d="M640.7,39.7c12.3,48-4.1,100.4-60.3,115.6c4.9-24.2,0-40.7-15.5-54.8c14.3-9.8,36.3,15.6,57.1-20.6
		c-34.9,25.7-46.3-0.2-68.1,12.3c-19.2-10.5-48.2-15.9-72.7,11.9C472.6,95,463,92,450.1,93.6L462,75.4l9.1,15.1
		C516.9,8,574.7,88.3,640.7,39.7L640.7,39.7z M554.3,64.4c0,2.8-9.5,0-25.1,5.5c-15.7,5.5-18.7,1.9-18.7-0.9
		C510.4,59.4,554.3,64,554.3,64.4L554.3,64.4z"/>
	<path class="st2" d="M90.8,205.8L30.5,427.6c-14,51-15,82.1,3.3,95.2c27.1,19.4,121.5,30.9,223.5,37c165.7,9.9,327.7,10,494-0.5
		c98.6-6.2,188.5-17.6,214.8-36.5c18.3-13.2,17.3-44.3,3.3-95.2l-60.2-221.7c-25.6-94.2-75.4-143.9-176.7-167.6
		c-100.4-23.5-346.8-23.7-449.3-3.4C171.3,57,117.7,106.9,90.8,205.8L90.8,205.8z M296.1,259.4l-3.4,10.4c0,0,13.1-3.2,9.5,11.1
		c-3.6,14.3-11.3,44.2-12.2,48c-0.9,3.9-4.6,24.7,15.6,24.7c17.7,0,28.9-16.4,31.4-20.4l2.8,0c-0.9,4.5-2.9,21.1,15.7,21
		c19.5,0,32.5-22.2,34.7-26.3l2.7,0c0.3,3.5,2.9,26.7,27.2,26.7c18,0,25-10.3,27.7-16.8l2.5,0l0.8,4.1c0,0,3.8,12.9,20.4,12.9
		c16.5,0,30.6-17,39.2-37c8.6-19.9,10-30.1,10-30.1l16.8,0c0,0-22.7,37.6-12,56c10.6,18.3,30.6,9.9,38.7,0.4
		c8.2-9.5,10-15.6,10-15.6l3.6,0c0,0-1.6,26.5,26.5,26.5c15.5,0,23.2-8.4,26.9-15.9l2.9,0c1.1,7.5,5.6,15.8,20.5,15.8
		c13.5,0,22.2-9.3,27.6-18.6l2.1,0l-5,17.9l25.4,0l13.6-55.1c0,0,13.8-17.7,20.6-17.7c6.8,0,2.3,11.3-0.5,20.4
		c-2.7,9.1-20,54.4,9.7,54.3c16,0,27.8-13.3,35.2-25.6c0.1-0.2,0.2-0.4,0.4-0.6c0.1-0.2,2.7,0,2.7,0s-1,25.8,26.3,25.8
		c27.3,0,31.3-26.6,31.3-26.6s-5.3,26.5,19.7,26.5c25,0,40.5-40.4,40.8-44.9c0.2-4.5-7.9-5.4-9.5,0.2c-1.6,5.7-12,26.8-24,24.3
		c-12-2.5,1.4-39.6,5.2-52.8c3.9-13.1,5.9-20.6,5.9-20.6l-28.3,0.1l-2.5,7c0,0-8.8-8.4-22.4-8.3c-13.6,0-27.2,5.7-35.3,22.9
		c-8.2,17.2-7,24.3-7,24.3s-13.8,25.2-24.2,25.2c-10.4,0,14.7-44.9,9.5-59.8c-5.2-14.9-23-13.9-31.9-8.8c-8.9,5.2-12,10.9-12,10.9
		l-3.2,0l3.2-14.7l-42.1,2.3l-1.6,8.8c0,0,14.5-2.1,11.8,8.6c-2.7,10.7-7.7,27.9-7.7,27.9s-15.6,29.9-27,25.6
		c-11.3-4.3,3.2-46.4,6.1-54.8c2.9-8.4,5.7-18.1,5.7-18.1l-29,0.1l-1.8,7.3l-2.3,0.5c0,0-5-8.8-19.5-8.8c-14.5,0-25.6,6.4-33.5,18.9
		c-7.9,12.5-9.3,26.5-9.3,26.5s-9.5,25.4-23.3,22.2c-13.8-3.1,7.2-46.9,12.5-52.8c5.2-5.9,9.3-10,9.3-10l0.5-3.4L510,261
		c0,0-7,71.8-29.7,71.9c-14.3,0-1.9-41.6,9.2-72.5l-28.3,0.1l-2,7.3l-2.3,0.2c0,0-6.1-9-20.6-9c-14.5,0-27.2,6.6-34.7,21.6
		c-7.5,15-8.8,26.5-8.8,26.5s-12.7,22.2-22.9,21.8c-6.3-0.3,5.6-39.5,15.7-69.6l-29.9,0.1c-1.6,7.3-10.4,47.2-13.1,49.9
		c-2.9,3-16.1,23.8-21.7,20.4c-5.7-3.4,0.9-17.4,5.9-34.9c2.5-8.8,6.4-23.2,9.6-35.4L296.1,259.4L296.1,259.4z M864.6,435.8h-21
		c-3.7,9.9-6,16.9-6.9,20.8h-9.5c2-3.7,6.6-14.8,13.7-33.3c6.2-16.2,10.4-27.6,12.3-34.1h9.4c1.7,5.7,5.8,17.1,12.4,34.1
		c7,18.1,11.6,29.2,13.8,33.3h-17.2C870.3,451.7,868,444.7,864.6,435.8L864.6,435.8z M861.8,428.6l-7.8-20.1l-7.7,20.1H861.8
		L861.8,428.6z M813.8,403.3c-3.6-6-8.7-9-15.3-9c-6,0-10.6,2.5-13.9,7.4c-3.3,5-4.9,12-4.9,21.2c0,9.4,1.7,16.6,5,21.4
		c3.3,4.8,8.2,7.2,14.7,7.2c3.6,0,6.9-0.8,10.1-2.3c3.2-1.5,5.8-3.6,8-6.4h1v10.6c-5.7,3-12.4,4.5-20.1,4.5c-4.5,0-8.7-0.7-12.8-2.1
		c-4.1-1.4-7.7-3.4-10.8-6c-7.6-6.3-11.4-15.4-11.4-27c0-10.7,3.7-19.4,11.2-26.1c3.2-2.8,6.8-5.1,10.9-6.6
		c4.1-1.6,8.3-2.4,12.5-2.4c3.8,0,7.2,0.3,10.4,1c3.2,0.7,6.5,1.8,10.1,3.4l-3.7,11H813.8L813.8,403.3z M747.7,422.9
		c0,17.1,0.3,28.3,1,33.7h-16.3c0.7-5.4,1-16.6,1-33.7c0-17.1-0.3-28.3-1-33.7h16.3C748,394.6,747.7,405.8,747.7,422.9L747.7,422.9z
		 M703.1,396.2v26.7c0,17.1,0.3,28.3,1,33.7h-16.3c0.7-5.4,1-16.6,1-33.7v-26.7c-6.8,0-12.7,0.4-17.5,1.3v-8.3c2.5,0,10.7,0,24.6,0
		c13.9,0,22.1,0,24.6,0v8.3C715.8,396.7,709.9,396.2,703.1,396.2L703.1,396.2z M657.4,403.3c-3.6-6-8.7-9-15.3-9
		c-6,0-10.6,2.5-13.9,7.4c-3.3,5-4.9,12-4.9,21.2c0,9.4,1.7,16.6,5,21.4c3.3,4.8,8.2,7.2,14.7,7.2c3.6,0,6.9-0.8,10.1-2.3
		c3.1-1.5,5.8-3.6,8-6.4h1v10.6c-5.7,3-12.4,4.5-20.1,4.5c-4.5,0-8.7-0.7-12.8-2.1c-4.1-1.4-7.7-3.4-10.8-6
		c-7.6-6.3-11.4-15.4-11.4-27c0-10.7,3.7-19.4,11.2-26.1c3.2-2.8,6.8-5.1,10.9-6.6c4.1-1.6,8.3-2.4,12.5-2.4c3.8,0,7.2,0.3,10.4,1
		c3.2,0.7,6.5,1.8,10.1,3.4l-3.7,11H657.4L657.4,403.3z M563.3,420.4h3.8c4.4,0,7.7-1,9.7-3c2.1-2,3.1-5.1,3.1-9.3
		c0-4.2-0.7-7.2-2.2-9c-1.5-1.9-3.8-2.8-7.1-2.8c-3.3,0-5.8,0.3-7.4,0.8V420.4L563.3,420.4z M579.8,456.6c-2.6-6-8-15.7-16.1-29.1
		h-0.3c0,14.1,0.3,23.8,1,29.1H548c0.7-5.3,1-16.5,1-33.5c0-17.2-0.3-28.5-1-33.8c2.5,0,5.9,0,10.1,0c2.5,0,5,0,7.6,0
		c3.7,0,6.7,0,8.8,0c6.5,0,11.5,1.5,15.2,4.6c3.7,3.1,5.5,7.3,5.5,12.7c0,4.8-1.5,9-4.4,12.5c-3,3.5-6.8,5.8-11.6,6.9
		c8.7,15.1,15.2,25.3,19.5,30.6H579.8L579.8,456.6z M512.7,435.8h-21c-3.7,9.9-6,16.9-6.9,20.8h-9.5c2-3.7,6.6-14.8,13.7-33.3
		c6.2-16.2,10.4-27.6,12.3-34.1h9.4c1.7,5.7,5.8,17.1,12.4,34.1c7,18.1,11.6,29.2,13.8,33.3h-17.2
		C518.4,451.7,516.1,444.7,512.7,435.8L512.7,435.8z M509.9,428.6l-7.8-20.1l-7.7,20.1H509.9L509.9,428.6z M451.7,396.2v26.7
		c0,17.1,0.3,28.3,1,33.7h-16.3c0.7-5.4,1-16.6,1-33.7v-26.7c-6.8,0-12.7,0.4-17.5,1.3v-8.3c2.5,0,10.7,0,24.6,0
		c13.9,0,22.1,0,24.6,0v8.3C464.4,396.7,458.6,396.2,451.7,396.2L451.7,396.2z M400.2,435.4v-12.5c0-17.1-0.3-28.3-1-33.7h9
		c-0.7,5.4-1,16.6-1,33.7c0,17.1,0.3,28.3,1,33.7h-9.4c-3.9-5.5-14.2-16.6-30.8-33.4l-13-13.1v12.8c0,17.1,0.3,28.3,1,33.7h-9
		c0.7-5.4,1-16.6,1-33.7c0-17.1-0.3-28.3-1-33.7h9.4c3.9,5.4,14.3,16.6,31.3,33.7L400.2,435.4L400.2,435.4z M311.6,435.8h-21
		c-3.7,9.9-6,16.9-6.9,20.8h-9.5c2-3.7,6.6-14.8,13.7-33.3c6.2-16.2,10.4-27.6,12.3-34.1h9.4c1.7,5.7,5.8,17.1,12.4,34.1
		c7,18.1,11.6,29.2,13.8,33.3h-17.2C317.3,451.7,315,444.7,311.6,435.8L311.6,435.8z M308.8,428.6l-7.8-20.1l-7.7,20.1H308.8
		L308.8,428.6z M312.4,266.4c-1.1,0-1-1.6,0.1-1.6c2.3,0,4.7,0,7,0c4.3,0,6.4,1.1,7.3,3.2c0.9,2.2,0.1,5.2-0.5,7.4
		c-3.5,13.7-7.7,27.3-11,41.1c-1.3,5.6-3.6,15.5,2.5,18.2c1.2,0.5-0.7,1.7-1.6,1.3c-7.4-3.3-5-13.7-3.6-19.7
		c3.2-13.8,7.5-27.4,11-41.1c0.6-1.9,1.3-4.8,0.5-6.8c-0.5-1.3-1.9-2-4.7-2C317.1,266.4,314.7,266.4,312.4,266.4L312.4,266.4z
		 M652.8,266.8c-1,0-1.2-1.6-0.1-1.6c6.3-0.2,9.8,0,11.4,1.7c1.5,1.6,1.1,4.3-0.5,9.2c-0.5,1.5-3.2,1.4-2.6-0.3
		c1.5-4.5,2-6.9,0.8-8.1C660.8,266.7,658,266.6,652.8,266.8L652.8,266.8z M851.5,244.3c-0.4,0.2-0.5-0.1-0.3-0.7
		c0.2-0.6,0.7-1.2,1.1-1.3c0,0,10.4-4.4,3.7-12.3c-0.5-0.6-0.5-1.5,0-2c0.5-0.6,1.3-0.5,1.8,0C866.2,238,851.5,244.3,851.5,244.3
		L851.5,244.3z M709.7,302.6c0.2-0.7,0.9-1.3,1.6-1.2c0.7,0,1.2,0.6,1,1.3l-8.6,36.8c-0.2,0.7-0.9,1.3-1.6,1.2c-0.7,0-1.2-0.6-1-1.3
		L709.7,302.6L709.7,302.6z M755.2,269.6c-0.5,0-0.8-0.3-0.8-0.8c0-0.5,0.4-0.9,0.9-0.9c0,0,17.2-1.1,8.9,25.2l0,0c0,0,0,0,0,0
		c-0.9,2.8-1.7,5.3-2.5,7.7c-4.9,15.1-9.2,28.6-7.7,34.4c0.5,2.1,1.9,3,4.5,2.4c0.5-0.1,1,0.1,1.2,0.6c0.2,0.4,0,0.9-0.4,1
		c-4.7,1.2-7.1-0.2-8-3.5c-1.6-6.2,2.8-19.8,7.7-35c0.8-2.6,1.7-5.3,2.5-7.7h0c0,0,0,0,0,0h0C769.1,268.7,755.2,269.6,755.2,269.6
		L755.2,269.6z M711.4,266.6c-0.5,0-0.8-0.3-0.8-0.8c0-0.5,0.4-0.9,0.9-0.9c0,0,13.2-0.8,9.6,10.6l0,0c-0.1,0.5-0.3,0.9-0.3,1.2
		c-0.1,0.4-0.1,0.7-0.2,1.1c-0.2,1.7,0.2,2.9,0.9,3.8c0.4,0.5,0.2,1.1-0.5,1.4c-0.7,0.2-1.6,0-2-0.5c-0.9-1.1-1.3-2.6-1.1-4.6
		c0-0.4,0.1-0.8,0.2-1.2c0.1-0.4,0.2-0.9,0.4-1.3l0,0C721.3,266.1,711.4,266.6,711.4,266.6L711.4,266.6z M862.7,266.8
		c-1,0-1.2-1.6-0.1-1.6c6.3-0.2,9.8,0,11.4,1.7c1.5,1.6,1.1,4.3-0.5,9.2c-0.5,1.5-3.2,1.4-2.6-0.3c1.5-4.5,2-6.9,0.8-8.1
		C870.8,266.7,867.9,266.6,862.7,266.8L862.7,266.8z M812.3,338c1.1,0.7-1.2,1.5-2,1c-15.5-8.9-2-43.6-2-43.7
		c0.5-1.4,3.3-1.4,2.6,0.3C811,295.7,797.7,329.7,812.3,338L812.3,338z M848.4,270.2c1.1,1.2-1.6,1.6-2.4,0.7
		c-5.7-6.3-17.2-3.5-17.3-3.5c-3.4,0.1-4.1-2.3-0.6-2.4C828.2,264.8,841.8,262.8,848.4,270.2L848.4,270.2z M864.6,294.8
		c0.5-1.5,3.2-1.4,2.7,0.3c-2,6.6-3.9,13.5-5.1,19.8c-1,5.2-2,10.9-1.2,16.2c0.6,4.4,3.9,6.6,8.4,6.8c1.1,0.1,0.7,1.7-0.3,1.6
		c-5.2-0.3-10.2-2.9-10.8-8.4c-0.6-4.3,0-10.1,1.2-16.4C860.7,308.4,862.6,301.4,864.6,294.8L864.6,294.8z M602.3,338
		c1.1,0.7-1.2,1.5-2,1c-15.5-8.9-2-43.6-2-43.7c0.5-1.4,3.3-1.4,2.6,0.3C601,295.7,587.7,329.7,602.3,338L602.3,338z M638.4,270.2
		c1.1,1.2-1.6,1.6-2.4,0.7c-5.7-6.3-17.2-3.5-17.3-3.5c-3.4,0.1-4.1-2.3-0.6-2.4C618.2,264.8,631.8,262.8,638.4,270.2L638.4,270.2z
		 M654.6,294.8c0.5-1.5,3.2-1.4,2.7,0.3c-2,6.6-3.9,13.5-5.1,19.8c-1,5.2-2,10.9-1.2,16.2c0.6,4.4,3.9,6.6,8.4,6.8
		c1.1,0.1,0.7,1.7-0.3,1.6c-5.2-0.3-10.2-2.9-10.8-8.4c-0.6-4.3,0-10.1,1.2-16.4C650.7,308.4,652.6,301.4,654.6,294.8L654.6,294.8z
		 M261.3,340.8c-0.4,1.6-3.1,1.5-2.7-0.3c0-0.2,17.1-62.7,17.9-68.4c0.2-1.2,0.4-2.3,0.4-3.5c0-2-1.4-2.4-8.2-2.4
		c-1.1,0-1.1-1.7,0-1.7c9,0,10.9,0.8,10.9,4.1c0,1.2-0.2,2.4-0.4,3.6C278.4,278,261.4,340.6,261.3,340.8L261.3,340.8z M163.9,429.2
		c1.1,0.1,0.7,1.7-0.3,1.7c-0.1,0-28-2-32.7-21.6c-2-8.1,0.9-16,3.5-23c3.4-9.3,6.2-17-4-21.3c-1.2-0.5,0.6-1.8,1.5-1.4
		c11.8,5,8.8,13.2,5.2,23c-2.5,6.9-5.3,14.6-3.5,22.4C137.9,427.4,163.8,429.2,163.9,429.2L163.9,429.2z M231.8,166.9
		c-1,0.2-1.9-1.4-0.7-1.6c0.1,0,23.8-4.4,41.1,15.2c17,19.3,4.3,45.1,4.3,45.1c-0.7,1.4-3.3,1.1-2.6-0.5c0-0.1,12.4-25.2-4.1-43.9
		C253.6,162.9,231.9,166.9,231.8,166.9L231.8,166.9z M139.2,241.6c0.6-1.4,3.3-1.3,2.6,0.4c0,0.1-17.4,41.9,4.5,68.3
		c0,0,0,0.1,0,0.1c10.9,13.1,26.9,20.3,44.4,18.5c1-0.1,1.6,1.5,0.4,1.7c-18.4,1.9-35.6-5.4-47.2-19.4l0-0.1
		C121.6,284.1,139.2,241.7,139.2,241.6L139.2,241.6z M210.1,245.9c-1-1.4,1.7-1.8,2.5-0.7c0,0,6.1,8.6,16.5,7.9
		c1.1-0.1,1.4,1.6,0.3,1.7C216.9,255.6,210.1,246,210.1,245.9L210.1,245.9z M542.6,268c-1.1,0-1.5-1.8-0.2-1.8
		c5.6,0,11.3-0.1,16.9,0c0,0,8.4,0.3,1.1,10.4c-0.9,1.2-3.5,0.5-2.5-0.9c5.4-7.4,1.7-7.8,1.5-7.8H542.6L542.6,268z M550.7,292.1
		c0.7-1.4,3.4-0.9,2.6,0.7c0,0.1-17.3,34.6-1.4,41.2c1.2,0.5-0.3,1.9-1.3,1.5C532.7,327.9,550.6,292.2,550.7,292.1L550.7,292.1z
		 M361.7,266.4c-1.1,0-1-1.6,0.1-1.6c2.3,0,4.7,0,7,0c4.3,0,6.4,1.1,7.3,3.2c0.9,2.2,0.1,5.2-0.5,7.4c-3.5,13.7-7.7,27.3-11,41.1
		c-1.3,5.6-3.6,15.5,2.5,18.2c1.2,0.5-0.7,1.7-1.6,1.3c-7.4-3.3-5-13.7-3.6-19.7c3.2-13.8,7.5-27.4,11-41.1c0.6-1.9,1.3-4.8,0.5-6.8
		c-0.5-1.3-1.9-2-4.7-2C366.3,266.4,364,266.4,361.7,266.4L361.7,266.4z M469.6,266.8c-1,0-1.2-1.6-0.1-1.6c6.3-0.2,9.8,0,11.4,1.7
		c1.5,1.6,1.1,4.3-0.5,9.2c-0.5,1.5-3.2,1.4-2.6-0.3c1.5-4.5,2-6.9,0.8-8.1C477.7,266.7,474.8,266.6,469.6,266.8L469.6,266.8z
		 M419.2,338c1.1,0.7-1.2,1.5-2,1c-15.5-8.9-2-43.6-2-43.7c0.5-1.4,3.3-1.4,2.6,0.3C417.8,295.7,404.6,329.7,419.2,338L419.2,338z
		 M455.3,270.2c1.1,1.2-1.6,1.6-2.4,0.7c-5.7-6.3-17.2-3.5-17.3-3.5c-3.4,0.1-4.1-2.3-0.6-2.4C435.1,264.8,448.6,262.8,455.3,270.2
		L455.3,270.2z M471.5,294.8c0.5-1.5,3.2-1.4,2.7,0.3c-2,6.6-3.9,13.5-5.1,19.8c-1,5.2-2,10.9-1.2,16.2c0.6,4.4,3.9,6.6,8.4,6.8
		c1.1,0.1,0.7,1.7-0.3,1.6c-5.2-0.3-10.2-2.9-10.8-8.4c-0.6-4.3,0-10.1,1.2-16.4C467.6,308.4,469.5,301.4,471.5,294.8L471.5,294.8z
		 M212.9,236.3c-3.5-3-12.6,6.1-10.9,9.6c1.7,3.5,17.4,35.6,64.7-0.4c47.3-36,6.1-117.3-79.9-76.4c-86,40.8-98.1,157.6-41.3,178.5
		c56.9,20.8,92.1-28.7,92.1-28.7s3.5-1.7,1.7,3.5c-1.7,5.2-18.7,91.6-64.7,99.5c-46,7.8-36.5-30-30-38.2c6.5-8.3-0.4-27.8-17.4-25.2
		c-16.9,2.6-25.6,22.1-20.8,46.5c4.8,24.3,45.6,52.1,99,25.2s74.3-140.7,76-146.4c1.7-5.6,5.6-24.3,5.6-24.3h-27.8
		c0,0-8.7,60.8-67.3,64.3c-58.6,3.5-63-69.1-27.8-109.9c35.2-40.8,65.6-30,74.3-27.8c8.7,2.2,23.5,19.5,16.9,39.5
		C248.9,245.4,219.8,257.2,212.9,236.3L212.9,236.3z M829.6,246.5c0,0,10.4-24.7,26.5-22.6C872.3,226.1,866.6,255.8,829.6,246.5
		L829.6,246.5z M442.8,275.3c-9,0-19.6,13.7-23.7,30.5c-4.1,16.8-0.1,30.5,8.9,30.5c9,0,19.6-13.7,23.7-30.5
		C455.7,289,451.7,275.3,442.8,275.3L442.8,275.3z M836.1,275.3c-9,0-19.6,13.7-23.7,30.5c-4.1,16.8-0.1,30.5,8.9,30.5
		c9,0,19.6-13.7,23.7-30.5C849.1,289,845.1,275.3,836.1,275.3L836.1,275.3z M626,275.3c-9,0-19.6,13.7-23.7,30.5
		c-4.1,16.8-0.1,30.5,8.9,30.5c9,0,19.6-13.7,23.7-30.5C639,289,635,275.3,626,275.3L626,275.3z M528.8,146.3h3.6v3.6h3.6v3.6h3.6
		v3.6h3.6v3.6h3.6v3.6h-3.6v3.6h-3.6v3.6H536v3.6h-3.6v3.6h-3.6v-3.6h-3.6v-3.6h-3.6v-3.6h-3.6v-3.6h-3.6v-3.6h3.6V157h3.6v-3.6h3.6
		v-3.6h3.6V146.3L528.8,146.3z M471.5,142.7l-3.2,0.4l-0.4-3.2l3.2-0.4L471.5,142.7L471.5,142.7z M475.1,174.8l-3.2,0.4l-0.4-3.2
		l3.2-0.4L475.1,174.8L475.1,174.8z M455.8,177l-3.2,0.4l-0.4-3.2l3.2-0.4L455.8,177L455.8,177z M448.7,171.2l-3.2,0.4l-0.4-3.2
		l3.2-0.4L448.7,171.2L448.7,171.2z M446.6,152l-3.2,0.4l-0.4-3.2l3.2-0.4L446.6,152L446.6,152z M452.3,144.9l-3.2,0.4l-0.4-3.2
		l3.2-0.4L452.3,144.9L452.3,144.9z M460.8,163.4l-3.2,0.4l0.4,3.2l3.2-0.4L460.8,163.4L460.8,163.4z M457.6,163.8l-0.4-3.2
		l-3.2,0.4l0.4,3.2L457.6,163.8L457.6,163.8z M457.3,160.6l3.2-0.4l-0.4-3.2l-3.2,0.4L457.3,160.6L457.3,160.6z M460.5,160.2
		l0.4,3.2l3.2-0.4l-0.4-3.2L460.5,160.2L460.5,160.2z M464,163.1l0.4,3.2l3.2-0.4l-0.4-3.2L464,163.1L464,163.1z M464.4,166.3
		l-3.2,0.4l0.4,3.2l3.2-0.4L464.4,166.3L464.4,166.3z M463.7,159.8l3.2-0.4l-0.4-3.2l-3.2,0.4L463.7,159.8L463.7,159.8z
		 M466.9,159.5l0.4,3.2l3.2-0.4l-0.4-3.2L466.9,159.5L466.9,159.5z M454,160.9l-0.4-3.2l-3.2,0.4l0.4,3.2L454,160.9L454,160.9z
		 M473.3,158.8l-0.4-3.2l-3.2,0.4l0.4,3.2L473.3,158.8L473.3,158.8z M469.7,155.9l-0.4-3.2l-3.2,0.4l0.4,3.2L469.7,155.9
		L469.7,155.9z M465.8,149.9l-3.2,0.4l0.4,3.2l3.2-0.4L465.8,149.9L465.8,149.9z M453.3,154.5l0.4,3.2l3.2-0.4l-0.4-3.2L453.3,154.5
		L453.3,154.5z M456.6,154.1l3.2-0.4l-0.4-3.2l-3.2,0.4L456.6,154.1L456.6,154.1z M463,153.4l-3.2,0.4l0.4,3.2l3.2-0.4L463,153.4
		L463,153.4z M462.3,147l-3.2,0.4l0.4,3.2l3.2-0.4L462.3,147L462.3,147z M496.3,189.5l3.2-0.4l0.4,3.2l3.2-0.4l0.4,3.2l3.2-0.4
		l0.4,3.2l3.2-0.4l0.4,3.2l3.2-0.4l0.4,3.2l-3.2,0.4l0.4,3.2l-3.2,0.4l0.4,3.2l-3.2,0.4l0.4,3.2l-3.2,0.4l0.4,3.2l-3.2,0.4l-0.4-3.2
		l-3.2,0.4l-0.4-3.2l-3.2,0.4l-0.4-3.2l-3.2,0.4l-0.4-3.2l-3.2,0.4l-0.4-3.2l3.2-0.4l-0.4-3.2l3.2-0.4l-0.4-3.2l3.2-0.4l-0.4-3.2
		l3.2-0.4L496.3,189.5L496.3,189.5z M518.4,213l-3.2,0.4l-0.4-3.2l3.2-0.4L518.4,213L518.4,213z M512.7,220.2l-3.2,0.4l-0.4-3.2
		l3.2-0.4L512.7,220.2L512.7,220.2z M493.4,222.3l-3.2,0.4l-0.4-3.2l3.2-0.4L493.4,222.3L493.4,222.3z M486.3,216.6l-3.2,0.4
		l-0.4-3.2l3.2-0.4L486.3,216.6L486.3,216.6z M484.2,197.3l-3.2,0.4l-0.4-3.2l3.2-0.4L484.2,197.3L484.2,197.3z M489.9,190.2
		l-3.2,0.4l-0.4-3.2l3.2-0.4L489.9,190.2L489.9,190.2z M498.5,208.7l-3.2,0.4l0.4,3.2l3.2-0.4L498.5,208.7L498.5,208.7z
		 M495.2,209.1l-0.4-3.2l-3.2,0.4l0.4,3.2L495.2,209.1L495.2,209.1z M494.9,205.9l3.2-0.4l-0.4-3.2l-3.2,0.4L494.9,205.9
		L494.9,205.9z M498.1,205.5l0.4,3.2l3.2-0.4l-0.4-3.2L498.1,205.5L498.1,205.5z M501.7,208.4l0.4,3.2l3.2-0.4l-0.4-3.2L501.7,208.4
		L501.7,208.4z M502,211.6l-3.2,0.4l0.4,3.2l3.2-0.4L502,211.6L502,211.6z M501.3,205.2l3.2-0.4l-0.4-3.2L501,202L501.3,205.2
		L501.3,205.2z M504.5,204.8l0.4,3.2l3.2-0.4l-0.4-3.2L504.5,204.8L504.5,204.8z M491.7,206.2l-0.4-3.2l-3.2,0.4l0.4,3.2
		L491.7,206.2L491.7,206.2z M510.9,204.1l-0.4-3.2l-3.2,0.4l0.4,3.2L510.9,204.1L510.9,204.1z M507.4,201.3L507,198l-3.2,0.4
		l0.4,3.2L507.4,201.3L507.4,201.3z M503.5,195.2l-3.2,0.4l0.4,3.2l3.2-0.4L503.5,195.2L503.5,195.2z M491,199.8l0.4,3.2l3.2-0.4
		l-0.4-3.2L491,199.8L491,199.8z M494.2,199.5l3.2-0.4l-0.4-3.2l-3.2,0.4L494.2,199.5L494.2,199.5z M500.6,198.7l-3.2,0.4l0.4,3.2
		l3.2-0.4L500.6,198.7L500.6,198.7z M499.9,192.3l-3.2,0.4l0.4,3.2l3.2-0.4L499.9,192.3L499.9,192.3z M543.1,146.3h-3.6v-3.6h3.6
		V146.3L543.1,146.3z M550.3,153.4h-3.6v-3.6h3.6V153.4L550.3,153.4z M550.3,174.9h-3.6v-3.6h3.6V174.9L550.3,174.9z M543.1,182.1
		h-3.6v-3.6h3.6V182.1L543.1,182.1z M521.7,182.1h-3.6v-3.6h3.6V182.1L521.7,182.1z M514.5,174.9h-3.6v-3.6h3.6V174.9L514.5,174.9z
		 M514.5,153.4h-3.6v-3.6h3.6V153.4L514.5,153.4z M521.7,146.3h-3.6v-3.6h3.6V146.3L521.7,146.3z M528.8,167.7h-3.6v3.6h3.6V167.7
		L528.8,167.7z M525.2,167.7v-3.6h-3.6v3.6H525.2L525.2,167.7z M525.2,164.2h3.6v-3.6h-3.6V164.2L525.2,164.2z M528.8,164.2v3.6h3.6
		v-3.6H528.8L528.8,164.2z M532.4,167.7v3.6h3.6v-3.6H532.4L532.4,167.7z M532.4,171.3h-3.6v3.6h3.6V171.3L532.4,171.3z
		 M532.4,164.2h3.6v-3.6h-3.6V164.2L532.4,164.2z M536,164.2v3.6h3.6v-3.6H536L536,164.2z M521.7,164.2v-3.6h-3.6v3.6H521.7
		L521.7,164.2z M543.1,164.2v-3.6h-3.6v3.6H543.1L543.1,164.2z M539.6,160.6V157H536v3.6H539.6L539.6,160.6z M536,153.4h-3.6v3.6
		h3.6V153.4L536,153.4z M521.7,157v3.6h3.6V157H521.7L521.7,157z M525.2,157h3.6v-3.6h-3.6V157L525.2,157z M532.4,157h-3.6v3.6h3.6
		V157L532.4,157z M532.4,149.8h-3.6v3.6h3.6V149.8L532.4,149.8z M490.7,180.4c10.4,10.5,24.9,17,40.8,17c3.6,0,7.1-0.3,10.5-1
		c-0.9,3.3-2.2,6.5-4,9.6c-11.3,19.5-36.4,26.2-55.9,15c-11.7-6.8-18.8-18.5-20.2-31C472.5,189.4,482.3,186,490.7,180.4L490.7,180.4
		z M523.4,96.5c6.2-1,11.2,0.5,11.2,3.4c0,2.9-5,6.1-11.2,7.2c-6.2,1-11.2-0.5-11.2-3.4C512.3,100.7,517.3,97.5,523.4,96.5
		L523.4,96.5z M453,105.7c5-0.8,9.1,0.4,9.1,2.7c0,5.8-18.2,8.7-18.2,3.1C443.9,109.1,448,106.5,453,105.7L453,105.7z M531.4,89.5
		c27.7,0,50.3,22.6,50.3,50.3c0,27.7-22.6,50.3-50.3,50.3c-27.7,0-50.3-22.6-50.3-50.3C481.2,112.1,503.8,89.5,531.4,89.5
		L531.4,89.5z M459.5,100c8.8,0,17,2.8,23.7,7.6c-6.2,9.2-9.8,20.3-9.8,32.2c0,5,0.9,10.4,2.4,15.5l-2.8,0.3l-0.4-3.2l-3.2,0.4
		l-0.4-3.2l-3.2,0.4l-0.4-3.2l-3.2,0.4l-0.4-3.2l-3.2,0.4l0.4,3.2l-3.2,0.4l0.4,3.2l-3.2,0.4l0.4,3.2l-3.2,0.4l0.4,3.2l-3.2,0.4
		l0.4,3.2l3.2-0.4l0.4,3.2l3.2-0.4l0.4,3.2l3.2-0.4l0.4,3.2l3.2-0.4l0.4,3.2l3.2-0.4l-0.4-3.2l3.2-0.4l-0.4-3.2l3.2-0.4l-0.4-3.2
		l3.2-0.4l-0.4-3.2l3.2-0.4l-0.1-1.3c0.8,2.6,1.8,5.2,2.8,7.5l-2,0.2l0.4,3.2l3.1-0.3c1.2,2.3,2.4,4.2,3.5,5.7
		c-6.9,5.2-15.5,8.4-24.7,8.4c-22.5,0-40.9-18.4-40.9-40.9C418.6,118.4,436.9,100,459.5,100L459.5,100z M213.8,514
		c-2.6-0.2-4.5,0.3-5.7,1.4c-1.5,1.4-2.3,3.9-2.6,7.7c-0.3,3.9,0.4,7.1,2.1,9.4c1.7,2.3,4.1,3.6,7.4,3.8c2.6,0.2,4.5-0.3,5.7-1.5
		c1.5-1.4,2.3-4,2.6-7.8c0.3-3.9-0.4-7-2.1-9.3C219.5,515.5,217,514.2,213.8,514L213.8,514z M215.6,507.4c2.6,0.2,5.1,0.8,7.3,1.7
		c2.2,1,4.1,2.3,5.7,3.9c3.3,3.5,4.8,8,4.4,13.4c-0.2,2.7-0.8,5-1.9,7.2c-1.1,2.2-2.5,4-4.4,5.4c-1.8,1.4-3.8,2.5-6.2,3.1
		c-2.3,0.7-4.8,0.9-7.5,0.7c-2.7-0.2-5.1-0.8-7.3-1.7c-2.2-1-4.1-2.3-5.7-3.9c-1.6-1.7-2.8-3.7-3.6-6c-0.8-2.3-1-4.7-0.9-7.4
		c0.4-5.4,2.5-9.6,6.3-12.6c1.8-1.4,3.9-2.4,6.2-3.1C210.4,507.4,212.9,507.2,215.6,507.4L215.6,507.4z M270.8,517.7
		c-2.6-0.1-4.5,0.4-5.7,1.5c-1.4,1.4-2.3,4-2.5,7.8c-0.2,3.9,0.5,7.1,2.2,9.3c1.7,2.3,4.2,3.5,7.5,3.7c2.6,0.1,4.5-0.4,5.7-1.5
		c1.4-1.4,2.3-4,2.5-7.8c0.2-3.9-0.5-7-2.2-9.3C276.6,519,274.1,517.8,270.8,517.7L270.8,517.7z M272.6,511.1
		c2.6,0.1,5.1,0.7,7.3,1.6c2.2,0.9,4.2,2.2,5.7,3.8c3.4,3.4,5,7.9,4.7,13.3c-0.1,2.7-0.7,5.1-1.8,7.2c-1,2.2-2.5,4-4.3,5.5
		c-1.7,1.5-3.8,2.5-6.1,3.2c-2.3,0.7-4.8,1-7.5,0.8c-2.7-0.1-5.1-0.7-7.3-1.6c-2.2-0.9-4.2-2.2-5.8-3.8c-1.7-1.7-2.9-3.7-3.7-5.9
		c-0.8-2.3-1.1-4.7-1-7.4c0.3-5.4,2.3-9.6,6-12.7c1.8-1.4,3.8-2.5,6.1-3.2C267.4,511.2,269.9,510.9,272.6,511.1L272.6,511.1z
		 M308.9,519.4l-0.4,0l-0.4,10.8l0.4,0c3.5,0.1,5.3-1.6,5.4-5.2C314,521.4,312.4,519.5,308.9,519.4L308.9,519.4z M299.8,520.5
		c0.1-2.7-0.3-5.1-1.1-7.2l14.2,0.5c3.5,0.1,6.2,1.2,8.1,3.3c1.9,2,2.8,4.8,2.7,8.3c-0.1,2.5-0.7,4.6-1.8,6.3
		c-1.1,1.7-2.6,2.9-4.4,3.6l4.4,8.2c1.2,2.2,2.6,3.9,4.4,5.2l-12.2-0.4c0-0.5,0-1.2-0.2-1.9c-0.1-0.7-0.3-1.3-0.5-1.7l-5.5-11.6
		l-0.3,7.8c-0.1,2.7,0.3,5.1,1.1,7.1l-11.3-0.4c1-1.9,1.5-4.3,1.6-7.1L299.8,520.5L299.8,520.5z M343.6,522.1l-0.7,20.2
		c-0.1,2.8,0.3,5.2,1.1,7.2l-11.3-0.4c1-2,1.5-4.4,1.6-7.1l0.7-20.2c0.1-2.7-0.3-5.1-1.1-7.1l11.3,0.4
		C344.3,517,343.7,519.3,343.6,522.1L343.6,522.1z M380.9,526c-1-1.1-2.4-1.9-4-2.6c-1.7-0.7-3.4-1-5.1-1c-6.3-0.1-9.5,3.5-9.6,10.9
		c-0.1,7.4,2.8,11.2,8.8,11.3c1.2,0,2.2-0.1,3-0.2l0.1-3.4c0-2.7-0.4-5.1-1.2-7.1l11.3,0.2c-0.9,1.9-1.4,4.3-1.5,7.1l-0.1,8.3
		c-1.6,0.6-3.4,1.1-5.5,1.4c-2.1,0.3-4.1,0.5-6.2,0.5c-2.6,0-5.1-0.5-7.3-1.4c-2.3-0.9-4.2-2.1-5.9-3.6c-1.7-1.6-3-3.6-3.9-5.8
		c-0.9-2.2-1.3-4.7-1.2-7.3c0-2.6,0.6-5.1,1.5-7.3c1-2.2,2.4-4.1,4.2-5.7c1.7-1.5,3.8-2.6,6.1-3.4c2.4-0.8,4.9-1.1,7.6-1.1
		c1.6,0,3.3,0.2,5,0.4c1.7,0.2,3.1,0.5,4.2,0.9L380.9,526L380.9,526z M402.4,524.1l-0.4,20.2c0,2.8,0.4,5.2,1.2,7.1l-11.3-0.2
		c0.9-2,1.4-4.4,1.5-7.1l0.4-20.2c0-2.7-0.4-5.1-1.2-7.1l11.3,0.2C402.9,519,402.5,521.3,402.4,524.1L402.4,524.1z M422.7,533.2
		v11.9c0,2.8,0.5,5.2,1.3,7.1h-11.3c0.9-2,1.3-4.4,1.3-7.1v-24.2c-0.9-1.3-1.9-2.4-2.9-3.1h11.6c0.4,1.5,1.3,3.3,2.7,5.3l9.8,13.9
		v-12c0-2.7-0.5-5.1-1.3-7.1h11.3c-0.9,1.9-1.3,4.3-1.3,7.1v20.2c0,2.7,0.5,5.1,1.3,7.1h-10c-0.4-1.5-1.3-3.2-2.7-5.3L422.7,533.2
		L422.7,533.2z M473.5,543.9h-9l-1.5,4.9c-0.1,0.5-0.2,1.2-0.2,1.9c0,0.8,0.1,1.4,0.3,1.8H452c0.9-1.2,1.7-3,2.6-5.2l9-24.5
		c0.7-1.8,1-3.4,1-4.7h8.6c0,1.3,0.3,2.9,1,4.7l9,24.5c0.8,2.2,1.7,4,2.6,5.2h-11.1c0.2-0.5,0.3-1.1,0.3-1.8c0-0.8-0.1-1.4-0.2-1.9
		L473.5,543.9L473.5,543.9z M469,528.1l-2.9,10.3h5.9L469,528.1L469,528.1z M504.1,518.1c-0.9,1.9-1.3,4.3-1.3,7.1v21.6h2.8
		c4.1,0,7.3-0.8,9.6-2.5l-2.7,8.3h-19.8c0.9-2,1.3-4.4,1.3-7.1v-20.2c0-2.7-0.5-5.1-1.3-7.1H504.1L504.1,518.1z M545.3,546.5h1.7
		c2.8,0,4.9-1,6.6-3c1.6-2,2.4-4.7,2.4-8.2c0-3.5-0.8-6.2-2.4-8.1s-3.8-2.9-6.6-2.9h-1.7V546.5L545.3,546.5z M548.2,518.1
		c5.1,0,9.3,1.5,12.5,4.5c3.3,3.1,5,7.4,5,12.7c0,5.4-1.7,9.6-5,12.8c-3.2,3-7.4,4.5-12.5,4.5h-12.9c0.9-2,1.3-4.4,1.3-7.1v-20.2
		c0-2.7-0.5-5.1-1.3-7.1H548.2L548.2,518.1z M589.3,523.5c-2.6,0-4.5,0.7-5.6,1.9c-1.3,1.5-2,4.1-1.9,7.9c0.1,3.9,1,7,2.9,9.2
		c1.8,2.2,4.4,3.2,7.7,3.2c2.6,0,4.5-0.7,5.6-1.9c1.3-1.5,2-4.2,1.9-8c-0.1-3.9-1-7-2.9-9.1C595.2,524.5,592.6,523.4,589.3,523.5
		L589.3,523.5z M590.6,516.8c2.7,0,5.1,0.3,7.4,1.1c2.3,0.8,4.3,1.9,6,3.4c3.6,3.2,5.5,7.5,5.6,12.9c0,2.7-0.4,5.1-1.2,7.3
		c-0.9,2.2-2.2,4.2-3.9,5.8c-1.6,1.6-3.6,2.8-5.9,3.6c-2.3,0.9-4.7,1.3-7.4,1.4c-2.7,0-5.1-0.3-7.4-1.1c-2.3-0.8-4.3-1.9-6-3.4
		c-1.8-1.6-3.1-3.5-4.1-5.7c-1-2.2-1.5-4.6-1.5-7.3c-0.1-5.4,1.6-9.8,5.1-13.1c1.7-1.6,3.6-2.8,5.9-3.6
		C585.5,517.3,587.9,516.9,590.6,516.8L590.6,516.8z M641.7,521.6l-1.5,0.1l0.3,8.1l1.5-0.1c1.7-0.1,3-0.5,3.9-1.3
		c0.9-0.8,1.3-1.9,1.3-3.2c0-1.2-0.6-2.1-1.5-2.7C644.7,521.8,643.4,521.6,641.7,521.6L641.7,521.6z M655.8,523.4
		c0.1,2-0.4,3.9-1.3,5.4c-0.9,1.6-2.2,2.7-3.9,3.3c2.1,0.5,3.7,1.4,4.9,2.8c1.2,1.4,1.8,3.2,1.8,5.3c0.1,2.9-0.9,5.3-2.9,7
		c-2,1.8-4.9,2.7-8.5,2.8l-14.8,0.5c0.8-2.1,1.2-4.5,1.1-7.1l-0.7-20.2c-0.1-2.7-0.6-5.1-1.6-7.1l15.2-0.5c3.1-0.1,5.6,0.6,7.6,2
		C654.8,519.1,655.8,521,655.8,523.4L655.8,523.4z M648.8,539.8c0-1.4-0.6-2.5-1.7-3.3c-1.1-0.8-2.6-1.1-4.5-1.1l-1.8,0.1l0.3,9.1
		l1.8-0.1c1.9-0.1,3.3-0.5,4.4-1.4C648.3,542.3,648.8,541.2,648.8,539.8L648.8,539.8z M675.7,519.8l-0.4,0l0.4,10.8l0.4,0
		c3.5-0.1,5.1-2,5-5.6C681,521.5,679.2,519.7,675.7,519.8L675.7,519.8z M666.7,521.5c-0.1-2.7-0.6-5.1-1.6-7.1l14.2-0.5
		c3.5-0.1,6.3,0.8,8.3,2.7c2,1.9,3.1,4.6,3.2,8.1c0.1,2.5-0.4,4.6-1.3,6.4c-1,1.8-2.3,3.1-4.1,3.9l5,7.9c1.3,2.1,2.9,3.8,4.7,4.9
		l-12.2,0.4c0-0.5-0.1-1.2-0.3-1.8c-0.2-0.7-0.4-1.2-0.6-1.7l-6.3-11.2l0.3,7.8c0.1,2.7,0.6,5,1.6,7.1l-11.3,0.4
		c0.8-2,1.2-4.3,1.1-7.1L666.7,521.5L666.7,521.5z M719.5,537.8l-9,0.5l-1.2,5c-0.1,0.5-0.1,1.2-0.1,2c0.1,0.8,0.2,1.4,0.4,1.8
		l-11.1,0.6c0.8-1.3,1.6-3.1,2.3-5.3l7.7-25c0.6-1.9,0.9-3.5,0.8-4.8l8.6-0.5c0.1,1.3,0.5,2.9,1.3,4.7l10.3,24
		c1,2.2,1.9,3.9,2.9,5.1l-11.1,0.6c0.2-0.5,0.2-1.1,0.2-1.9c0-0.8-0.1-1.4-0.3-1.9L719.5,537.8L719.5,537.8z M714.2,522.2l-2.4,10.4
		l5.9-0.3L714.2,522.2L714.2,522.2z M738.5,536.1c1.2,1.1,2.4,1.9,3.8,2.4c1.4,0.6,2.7,0.8,3.9,0.7c1.2-0.1,2.1-0.4,2.7-0.9
		c0.6-0.5,0.9-1.3,0.9-2.2c0-0.6-0.2-1.3-0.6-1.9c-0.4-0.7-0.9-1.2-1.6-1.8l-5.6-4.4c-1.5-1.2-2.7-2.6-3.6-4.1
		c-0.9-1.5-1.4-3.1-1.5-4.7c-0.1-2.6,0.7-4.8,2.4-6.6c1.7-1.8,4.1-2.7,7-2.9c3.1-0.2,5.9,0.1,8.4,0.6l0.4,7.4c-2-1.5-4.1-2.1-6.5-2
		c-1,0.1-1.8,0.3-2.3,0.8c-0.6,0.5-0.8,1.1-0.8,1.8c0.1,1.2,0.7,2.2,1.9,3.2l6.1,4.9c1.4,1.1,2.6,2.5,3.4,4c0.9,1.5,1.3,3,1.4,4.5
		c0.2,3.1-0.6,5.5-2.3,7.3c-1.7,1.8-4.1,2.8-7.4,2.9c-3.4,0.2-6.7-0.1-9.8-0.9L738.5,536.1L738.5,536.1z M775,515.8l1.4,20.2
		c0.2,2.8,0.8,5.1,1.8,7l-11.3,0.8c0.7-2.1,1-4.5,0.8-7.2l-1.4-20.2c-0.2-2.7-0.8-5-1.8-7l11.3-0.8C775.1,510.6,774.8,513,775,515.8
		L775,515.8z M796.6,506.9c-0.8,2-1,4.4-0.8,7.2l1.5,21.5l2.8-0.2c4.1-0.3,7.3-1.4,9.4-3.2l-2.1,8.5l-19.8,1.4
		c0.7-2.1,1-4.5,0.8-7.2l-1.4-20.2c-0.2-2.7-0.8-5-1.8-7L796.6,506.9L796.6,506.9z M94.1,237L51,401.7c-13.4,37.9-14.4,61,3.1,70.7
		c25.9,14.4,116.2,23,213.8,27.5c158.5,7.4,313.4,7.4,472.5-0.4c94.3-4.6,180.3-13.1,205.4-27.1c17.5-9.8,16.6-32.9,3.1-70.7
		l-43-164.7c-24.5-70-72.1-106.9-169-124.5c-21.3-3.9-50.8-6.9-85-9.1c8.4-22.4,7.3-49.2-2.5-75.3c-72.6,54.6-116.8-27.5-172.5,48
		c-10.1-34.4-22,23.3-48.1,23.7c-61.1,0.8-116.2,4.9-150.6,10.2C171,126.5,119.8,163.5,94.1,237L94.1,237z"/>
</g>
</svg>
